# xmcd
#
# Track frame offsets:
#	150
#	11926
#	23027
#	34728
#	46279
#	57530
#	73731
#	87832
#	105383
#	119334
#
# Disc length: 1776 seconds
#
# Revision: 0
# Processed by: cddbd v1.5.2PL0 Copyright (c) Steve Scherf et al.
# Submitted via: audiograbber 1.83.01
#
DISCID=8206ee0a
DTITLE=Hank Williams, Jr. - Rowdy
DYEAR=1981
DGENRE=Country
TTITLE0=Dixie On My Mind
TTITLE1=Texas Women
TTITLE2=You Can't Find Many Kissers
TTITLE3=Give A Damn
TTITLE4=Ain't Much More
TTITLE5=Ramblin Man
TTITLE6=I Got A Right To Be Wrong
TTITLE7=Footlights
TTITLE8=Tennessee River
TTITLE9=Are You Sure Hank Done It This Way
EXTD=
EXTT0=
EXTT1=
EXTT2=
EXTT3=
EXTT4=
EXTT5=
EXTT6=
EXTT7=
EXTT8=
EXTT9=
PLAYORDER=
